<svg width="533" height="522" viewBox="0 0 533 522" fill="none" xmlns="http://www.w3.org/2000/svg">
<path d="M521.428 160.764C544.839 227.536 530.793 306.326 485.977 361.747C441.162 416.5 377.618 435.196 298.69 441.206C314.743 477.263 339.492 501.968 373.605 522C312.737 520.665 252.537 495.291 208.391 453.225C202.371 447.883 197.02 441.874 190.331 438.535C184.311 435.864 177.622 434.529 171.602 433.193C112.741 419.839 58.5611 382.447 27.7925 330.364C-2.97615 278.282 -8.99609 211.51 13.7459 155.422C31.1369 112.688 85.3164 -8.8373 292.67 0.510776C417.082 5.85254 498.017 93.3238 521.428 160.764Z" fill="#00FDEE"/>
<path d="M524.104 183.466C524.104 183.466 544.839 281.621 450.526 351.064C380.294 402.478 292.001 410.491 292.001 410.491L300.697 435.197C300.697 434.529 557.548 429.187 524.104 183.466Z" fill="#00FDEE"/>
<path d="M7.72587 228.204C7.72587 228.204 10.4014 357.741 155.549 401.143L168.258 425.849C168.258 425.849 11.0703 398.472 7.72587 228.204Z" fill="#00FDEE"/>
<g filter="url(#filter0_d_444_480)">
<path d="M501.276 161.986C522.728 223.171 509.857 295.37 468.792 346.154C427.726 396.326 369.499 413.458 297.174 418.964C311.884 452.005 334.562 474.643 365.821 492.999C310.045 491.775 254.883 468.525 214.43 429.978C208.914 425.083 204.01 419.576 197.881 416.517C192.365 414.07 186.236 412.846 180.719 411.622C126.782 399.385 77.1358 365.121 48.9415 317.397C20.7472 269.672 15.231 208.487 36.0702 157.091C52.0061 117.932 101.653 6.57494 291.658 15.1409C405.661 20.0357 479.824 100.189 501.276 161.986Z" fill="#181823"/>
<path d="M503.728 182.789C503.728 182.789 522.728 272.732 436.307 336.364C371.95 383.477 291.045 390.819 291.045 390.819L299.013 413.458C299.013 412.846 534.374 407.951 503.728 182.789Z" fill="#181823"/>
<path d="M30.5536 223.784C30.5536 223.784 33.0052 342.483 166.009 382.254L177.654 404.892C177.654 404.892 33.6182 379.806 30.5536 223.784Z" fill="#181823"/>
</g>
<g filter="url(#filter1_d_444_480)">
<mask id="path-7-outside-1_444_480" maskUnits="userSpaceOnUse" x="153.438" y="102.699" width="211" height="211" fill="black">
<rect fill="white" x="153.438" y="102.699" width="211" height="211"/>
<path d="M167.438 299.359L350.098 116.699Z"/>
</mask>
<path d="M157.538 289.46C152.071 294.927 152.071 303.791 157.538 309.259C163.005 314.726 171.87 314.726 177.337 309.259L157.538 289.46ZM359.997 126.599C365.464 121.131 365.464 112.267 359.997 106.8C354.53 101.332 345.665 101.332 340.198 106.8L359.997 126.599ZM177.337 309.259L359.997 126.599L340.198 106.8L157.538 289.46L177.337 309.259Z" fill="#5201FF" mask="url(#path-7-outside-1_444_480)"/>
<path d="M157.538 289.46C152.071 294.927 152.071 303.791 157.538 309.259C163.005 314.726 171.87 314.726 177.337 309.259L157.538 289.46ZM359.997 126.599C365.464 121.131 365.464 112.267 359.997 106.8C354.53 101.332 345.665 101.332 340.198 106.8L359.997 126.599ZM177.337 309.259L359.997 126.599L340.198 106.8L157.538 289.46L177.337 309.259Z" fill="white" mask="url(#path-7-outside-1_444_480)"/>
<mask id="path-9-outside-2_444_480" maskUnits="userSpaceOnUse" x="153.438" y="102.699" width="211" height="211" fill="black">
<rect fill="white" x="153.438" y="102.699" width="211" height="211"/>
<path d="M167.438 116.699L350.098 299.359Z"/>
</mask>
<path d="M177.337 106.8C171.87 101.332 163.005 101.332 157.538 106.8C152.071 112.267 152.071 121.131 157.538 126.599L177.337 106.8ZM340.198 309.259C345.665 314.726 354.53 314.726 359.997 309.259C365.464 303.791 365.464 294.927 359.997 289.46L340.198 309.259ZM157.538 126.599L340.198 309.259L359.997 289.46L177.337 106.8L157.538 126.599Z" fill="#5201FF" mask="url(#path-9-outside-2_444_480)"/>
<path d="M177.337 106.8C171.87 101.332 163.005 101.332 157.538 106.8C152.071 112.267 152.071 121.131 157.538 126.599L177.337 106.8ZM340.198 309.259C345.665 314.726 354.53 314.726 359.997 309.259C365.464 303.791 365.464 294.927 359.997 289.46L340.198 309.259ZM157.538 126.599L340.198 309.259L359.997 289.46L177.337 106.8L157.538 126.599Z" fill="white" mask="url(#path-9-outside-2_444_480)"/>
</g>
<defs>
<filter id="filter0_d_444_480" x="23.4746" y="14.6729" width="496.053" height="486.326" filterUnits="userSpaceOnUse" color-interpolation-filters="sRGB">
<feFlood flood-opacity="0" result="BackgroundImageFix"/>
<feColorMatrix in="SourceAlpha" type="matrix" values="0 0 0 0 0 0 0 0 0 0 0 0 0 0 0 0 0 0 127 0" result="hardAlpha"/>
<feOffset dx="4" dy="4"/>
<feGaussianBlur stdDeviation="2"/>
<feComposite in2="hardAlpha" operator="out"/>
<feColorMatrix type="matrix" values="0 0 0 0 0 0 0 0 0 0 0 0 0 0 0 0 0 0 0.25 0"/>
<feBlend mode="normal" in2="BackgroundImageFix" result="effect1_dropShadow_444_480"/>
<feBlend mode="normal" in="SourceGraphic" in2="effect1_dropShadow_444_480" result="shape"/>
</filter>
<filter id="filter1_d_444_480" x="149.438" y="102.699" width="218.66" height="218.66" filterUnits="userSpaceOnUse" color-interpolation-filters="sRGB">
<feFlood flood-opacity="0" result="BackgroundImageFix"/>
<feColorMatrix in="SourceAlpha" type="matrix" values="0 0 0 0 0 0 0 0 0 0 0 0 0 0 0 0 0 0 127 0" result="hardAlpha"/>
<feOffset dy="4"/>
<feGaussianBlur stdDeviation="2"/>
<feComposite in2="hardAlpha" operator="out"/>
<feColorMatrix type="matrix" values="0 0 0 0 0 0 0 0 0 0 0 0 0 0 0 0 0 0 0.25 0"/>
<feBlend mode="normal" in2="BackgroundImageFix" result="effect1_dropShadow_444_480"/>
<feBlend mode="normal" in="SourceGraphic" in2="effect1_dropShadow_444_480" result="shape"/>
</filter>
</defs>
</svg>
