<svg width="570" height="121" viewBox="0 0 570 121" fill="none" xmlns="http://www.w3.org/2000/svg">
<path fill-rule="evenodd" clip-rule="evenodd" d="M44.417 5.7055C34.6273 7.82464 26.0954 13.6337 20.6989 21.8546C17.2968 27.0377 16.7716 30.05 19.084 31.1137C20.6495 31.8339 22.1734 31.0768 23.0975 29.1209L23.8965 27.4295L33.1785 27.4362L42.4605 27.4434L43.6996 29.7129C46.9295 35.6278 55.8936 35.4319 58.6566 29.3858L59.5395 27.4544L68.7907 27.4434L78.0419 27.4319L78.9907 29.1827C80.107 31.242 81.4833 31.8847 83.0731 31.0888C85.6781 29.7857 84.2904 25.51 79.1283 18.9347C70.7401 8.2499 56.9473 2.99299 44.417 5.7055ZM57.3743 11.4384C61.4092 12.4365 67.9273 15.8913 70.8829 18.598C72.1638 19.7713 73.1245 20.8086 73.0178 20.9035C72.9106 20.9983 69.9027 21.2234 66.3337 21.4039L59.8441 21.7315L57.6281 19.5884C53.5519 15.6456 48.2232 15.5718 44.536 19.4069L42.7252 21.2904L35.8324 21.5222C27.9698 21.7866 27.5936 21.5739 30.9558 18.7632C39.3435 11.7502 48.4405 9.2283 57.3743 11.4384ZM53.2264 22.9996C54.7109 24.7447 54.5895 26.9122 52.9451 28.0209C52.021 28.6435 49.4297 28.4103 48.6616 27.6349C47.6867 26.6503 47.708 24.1452 48.7014 23.0375C49.7063 21.9163 52.2866 21.8948 53.2264 22.9996ZM31.4236 33.6274C28.9182 34.2557 26.2401 36.3438 24.8353 38.7636C22.2199 43.2692 23.4363 49.709 27.4698 52.7059L28.9395 53.7978V61.9248C28.9395 66.3944 28.7716 70.0518 28.5666 70.0518C28.3612 70.0518 26.9451 67.9867 25.4189 65.4625C23.8837 62.9224 22.1525 60.6471 21.5419 60.3664C20.002 59.6582 18.0279 60.979 18.0279 62.7174C18.0279 65.7507 25.2898 75.6453 30.2613 79.3865L32.1651 80.8189L32.3587 86.0912C32.5968 92.5994 33.5409 94.8833 37.703 99.0254C41.7365 103.04 45.251 104.259 51.9488 103.97C58.0162 103.709 61.4747 102.26 64.9906 98.5067C68.5208 94.7387 69.3837 92.429 69.63 86.0892L69.8349 80.8161L72.4309 78.9167C75.7001 76.5251 79.2303 72.1666 83.1846 65.6387C84.5452 63.3926 84.1851 61.5876 82.1612 60.5116C80.5003 59.628 79.3702 60.6452 76.4198 65.6756C75.0089 68.0825 73.6753 70.0518 73.4571 70.0518C73.2388 70.0518 73.0605 66.3992 73.0605 61.9349V53.8179L74.7522 52.5153C77.3511 50.514 78.4854 47.9236 78.502 43.9516C78.5144 41.002 78.3441 40.3421 77.0854 38.46C73.8959 33.6916 68.2057 32.0973 63.3781 34.6187C59.9997 36.3835 58.2074 39.1472 57.9668 42.9636C57.8596 44.6618 58.0347 46.8082 58.3625 47.8096C59.2288 50.4604 62.5782 53.623 65.2326 54.2978L67.4187 54.8538L67.2744 65.0037C67.1302 75.1459 67.1293 75.1549 65.836 77.1256C63.0147 81.4262 56.0435 83.53 47.7929 82.5712C42.3509 81.9391 40.6321 81.2973 38.0337 78.9277C34.9182 76.0864 34.5823 74.5731 34.7365 64.0655L34.8698 54.9663L36.9843 54.2911C40.1287 53.2873 43.3486 49.8354 44.1034 46.6598C45.9199 39.0151 38.862 31.7607 31.4236 33.6274ZM9.66201 37.4476C6.33871 39.493 4.37414 44.0043 5.19915 47.6966C5.69919 49.9331 7.65285 52.9957 9.25733 54.0564C11.1356 55.2987 14.5623 55.5022 16.4381 54.4822C18.2272 53.51 18.3092 53.0637 17.3111 49.742C16.4329 46.8197 16.4149 44.18 17.2513 40.9264C17.8851 38.4586 17.8751 38.3925 16.7128 37.4696C15.1477 36.2264 11.6631 36.2159 9.66201 37.4476ZM85.2298 37.4064C84.4579 38.2675 84.4162 38.6717 84.8749 40.8315C85.6027 44.2557 85.5239 47.4121 84.6353 50.4321L83.8753 53.0158L85.1961 54.1628C86.3257 55.144 86.8855 55.2791 89.0598 55.0971C91.9798 54.8528 93.5378 53.8658 95.5607 50.9785C96.7249 49.3172 96.9546 48.5117 96.983 45.9955C97.0219 42.5302 95.9018 40.2344 93.1317 38.1018C90.8483 36.3438 86.524 35.963 85.2298 37.4064ZM36.3903 39.9805C37.8197 40.6883 39.0651 43.4655 38.6727 45.0698C38.501 45.7719 37.8017 46.939 37.1195 47.6631C36.135 48.7076 35.4495 48.9801 33.8056 48.9801C32.0754 48.9801 31.5014 48.7248 30.3362 47.4366C28.012 44.8682 28.6805 41.3368 31.7875 39.7655C33.4233 38.938 34.3759 38.9825 36.3903 39.9805ZM69.9298 39.5907C74.8894 41.6826 73.6919 48.9801 68.3893 48.9801C65.5276 48.9801 63.5721 47.142 63.5721 44.4525C63.5721 42.229 64.8402 40.1113 66.6027 39.3924C67.9894 38.8269 68.1398 38.836 69.9298 39.5907ZM44.0023 66.7378C42.9605 67.3503 42.9102 69.7189 43.9174 70.7361C44.5213 71.3453 45.8749 71.4885 51.0337 71.4885C56.8249 71.4885 57.4934 71.3989 58.3777 70.5062C59.4527 69.4211 59.2829 67.8546 57.9777 66.8192C57.0441 66.0783 45.2406 66.0098 44.0023 66.7378ZM18.5023 92.088C17.0672 92.5769 12.6907 93.9907 8.77675 95.2296C4.86279 96.4685 1.2871 97.8089 0.830233 98.2083C0.373368 98.6078 4.0898e-07 99.5138 4.0898e-07 100.223C4.0898e-07 102.73 -0.0379525 102.715 23.0093 109.631C39.8104 114.673 40.9945 115.002 44.175 115.523C48.4685 116.226 54.8158 116.144 59.0276 115.33C61.0098 114.947 66.5263 113.431 71.2857 111.961C76.0455 110.491 82.5014 108.523 85.6326 107.587C88.7637 106.652 91.8593 105.701 92.5116 105.474C93.164 105.247 95.2115 104.62 97.0613 104.081C100.761 103.003 102 101.998 102 100.076C102 98.3616 100.752 97.6226 94.5711 95.6783C91.7426 94.7885 87.3998 93.403 84.9209 92.6004C77.8511 90.3103 77.6263 90.3888 75.0483 96.0504C72.4485 101.759 66.8764 106.776 60.8954 108.793C52.2169 111.72 43.5758 110.964 36.5046 106.66C32.5475 104.252 29.1488 100.515 27.1643 96.3914C26.2135 94.4159 25.1238 92.4222 24.7419 91.9615C23.8637 90.9003 21.8698 90.941 18.5023 92.088ZM23.4695 100.883L25.6959 104.177L24.3529 103.854C21.1913 103.093 13.7581 100.558 13.7581 100.241C13.7581 99.8965 20.3616 97.3976 20.9399 97.523C21.1069 97.559 22.245 99.0708 23.4695 100.883ZM85.2767 98.9219C86.9078 99.4774 88.2419 100.063 88.2419 100.222C88.2419 100.643 76.8402 104.198 76.5218 103.877C76.3752 103.728 76.9199 102.843 77.7325 101.908C78.5452 100.974 79.5486 99.5488 79.9628 98.7404C80.5088 97.6744 80.9339 97.3593 81.5137 97.5915C81.9525 97.7678 83.6462 98.3664 85.2767 98.9219Z" fill="url(#paint0_linear_449_1940)"/>
<path d="M146.857 97H130.379L155.486 24.2727H175.301L200.372 97H183.895L165.678 40.892H165.109L146.857 97ZM145.827 68.4134H184.747V80.4162H145.827V68.4134ZM224.502 24.2727V97H209.126V24.2727H224.502Z" fill="#00FDEE"/>
<path d="M237.153 97V24.2727H265.846C271.339 24.2727 276.026 25.2552 279.909 27.2202C283.815 29.1615 286.786 31.9195 288.822 35.4943C290.882 39.0455 291.912 43.224 291.912 48.0298C291.912 52.8594 290.87 57.0142 288.787 60.4943C286.703 63.9508 283.685 66.6023 279.731 68.4489C275.801 70.2955 271.043 71.2188 265.456 71.2188H246.244V58.8608H262.97C265.905 58.8608 268.344 58.4583 270.285 57.6534C272.226 56.8485 273.671 55.6411 274.618 54.0312C275.588 52.4214 276.074 50.4209 276.074 48.0298C276.074 45.6151 275.588 43.5791 274.618 41.9219C273.671 40.2647 272.215 39.0099 270.25 38.1577C268.308 37.2817 265.858 36.8438 262.899 36.8438H252.529V97H237.153ZM276.429 63.9034L294.504 97H277.529L259.845 63.9034H276.429ZM326.473 98.0653C320.862 98.0653 316.033 96.929 311.984 94.6562C307.96 92.3598 304.858 89.1165 302.68 84.9261C300.502 80.7121 299.413 75.7287 299.413 69.9759C299.413 64.3651 300.502 59.4408 302.68 55.2031C304.858 50.9654 307.924 47.6629 311.878 45.2955C315.855 42.928 320.519 41.7443 325.869 41.7443C329.468 41.7443 332.818 42.3243 335.919 43.4844C339.044 44.6207 341.767 46.3371 344.087 48.6335C346.43 50.9299 348.253 53.8182 349.555 57.2983C350.857 60.7547 351.509 64.803 351.509 69.4432V73.598H305.45V64.223H337.268C337.268 62.045 336.795 60.1155 335.848 58.4347C334.901 56.7538 333.587 55.4399 331.906 54.4929C330.249 53.5223 328.32 53.0369 326.118 53.0369C323.821 53.0369 321.786 53.5696 320.01 54.6349C318.258 55.6766 316.885 57.0852 315.891 58.8608C314.896 60.6127 314.387 62.5658 314.364 64.7202V73.6335C314.364 76.3324 314.861 78.6643 315.855 80.6293C316.873 82.5942 318.305 84.1094 320.152 85.1747C321.999 86.2401 324.188 86.7727 326.722 86.7727C328.402 86.7727 329.941 86.536 331.338 86.0625C332.735 85.589 333.93 84.8788 334.925 83.9318C335.919 82.9848 336.677 81.8248 337.197 80.4517L351.189 81.375C350.479 84.7367 349.023 87.6723 346.821 90.1818C344.643 92.6676 341.826 94.6089 338.369 96.0057C334.937 97.3788 330.971 98.0653 326.473 98.0653ZM385.955 118.591C381.054 118.591 376.852 117.916 373.348 116.567C369.868 115.241 367.098 113.43 365.038 111.134C362.979 108.837 361.641 106.257 361.026 103.392L375.017 101.51C375.443 102.599 376.118 103.617 377.041 104.564C377.964 105.511 379.184 106.268 380.699 106.837C382.238 107.429 384.108 107.724 386.31 107.724C389.6 107.724 392.311 106.92 394.442 105.31C396.596 103.723 397.673 101.06 397.673 97.3196V87.3409H397.034C396.371 88.8561 395.377 90.2884 394.051 91.6378C392.725 92.9872 391.021 94.0881 388.938 94.9403C386.854 95.7926 384.368 96.2188 381.48 96.2188C377.384 96.2188 373.656 95.2718 370.294 93.3778C366.956 91.4602 364.293 88.5365 362.304 84.6065C360.339 80.6529 359.357 75.6577 359.357 69.6207C359.357 63.4418 360.363 58.2808 362.375 54.1378C364.387 49.9948 367.063 46.8935 370.401 44.8338C373.762 42.7741 377.444 41.7443 381.445 41.7443C384.499 41.7443 387.055 42.2652 389.115 43.3068C391.175 44.3248 392.832 45.6032 394.087 47.142C395.365 48.6572 396.348 50.1487 397.034 51.6165H397.602V42.4545H412.624V97.5327C412.624 102.173 411.487 106.055 409.214 109.18C406.942 112.305 403.793 114.649 399.768 116.212C395.768 117.798 391.163 118.591 385.955 118.591ZM386.274 84.8551C388.713 84.8551 390.772 84.2514 392.453 83.044C394.158 81.813 395.46 80.0611 396.359 77.7884C397.283 75.492 397.744 72.7457 397.744 69.5497C397.744 66.3537 397.295 63.5838 396.395 61.2401C395.495 58.8726 394.193 57.0379 392.489 55.7358C390.784 54.4337 388.713 53.7827 386.274 53.7827C383.788 53.7827 381.693 54.4574 379.989 55.8068C378.284 57.1326 376.994 58.9792 376.118 61.3466C375.242 63.714 374.804 66.4484 374.804 69.5497C374.804 72.6984 375.242 75.4209 376.118 77.7173C377.018 79.9901 378.308 81.7538 379.989 83.0085C381.693 84.2396 383.788 84.8551 386.274 84.8551ZM424.662 97V42.4545H439.79V97H424.662ZM432.261 35.4233C430.012 35.4233 428.083 34.6776 426.473 33.1861C424.887 31.6709 424.094 29.8598 424.094 27.7528C424.094 25.6695 424.887 23.8821 426.473 22.3906C428.083 20.8755 430.012 20.1179 432.261 20.1179C434.51 20.1179 436.428 20.8755 438.014 22.3906C439.624 23.8821 440.429 25.6695 440.429 27.7528C440.429 29.8598 439.624 31.6709 438.014 33.1861C436.428 34.6776 434.51 35.4233 432.261 35.4233ZM476.553 98.0653C471.037 98.0653 466.266 96.8935 462.242 94.5497C458.241 92.1823 455.151 88.8916 452.973 84.6776C450.795 80.4399 449.706 75.5275 449.706 69.9403C449.706 64.3059 450.795 59.3816 452.973 55.1676C455.151 50.9299 458.241 47.6392 462.242 45.2955C466.266 42.928 471.037 41.7443 476.553 41.7443C482.069 41.7443 486.828 42.928 490.828 45.2955C494.853 47.6392 497.954 50.9299 500.132 55.1676C502.31 59.3816 503.4 64.3059 503.4 69.9403C503.4 75.5275 502.31 80.4399 500.132 84.6776C497.954 88.8916 494.853 92.1823 490.828 94.5497C486.828 96.8935 482.069 98.0653 476.553 98.0653ZM476.624 86.3466C479.133 86.3466 481.229 85.6364 482.909 84.2159C484.59 82.7718 485.857 80.8068 486.709 78.321C487.585 75.8352 488.023 73.0062 488.023 69.8338C488.023 66.6615 487.585 63.8324 486.709 61.3466C485.857 58.8608 484.59 56.8958 482.909 55.4517C481.229 54.0076 479.133 53.2855 476.624 53.2855C474.091 53.2855 471.96 54.0076 470.232 55.4517C468.527 56.8958 467.237 58.8608 466.361 61.3466C465.509 63.8324 465.083 66.6615 465.083 69.8338C465.083 73.0062 465.509 75.8352 466.361 78.321C467.237 80.8068 468.527 82.7718 470.232 84.2159C471.96 85.6364 474.091 86.3466 476.624 86.3466ZM528.364 65.4659V97H513.236V42.4545H527.654V52.0781H528.293C529.5 48.9058 531.525 46.3963 534.365 44.5497C537.206 42.6795 540.651 41.7443 544.699 41.7443C548.487 41.7443 551.79 42.5729 554.607 44.2301C557.424 45.8873 559.614 48.2547 561.176 51.3324C562.739 54.3864 563.52 58.0322 563.52 62.2699V97H548.392V64.9688C548.416 61.6307 547.564 59.0265 545.836 57.1562C544.107 55.2623 541.728 54.3153 538.698 54.3153C536.662 54.3153 534.863 54.7533 533.3 55.6293C531.761 56.5052 530.554 57.7836 529.678 59.4645C528.826 61.1217 528.388 63.1222 528.364 65.4659Z" fill="white"/>
<defs>
<linearGradient id="paint0_linear_449_1940" x1="51" y1="5" x2="51" y2="116" gradientUnits="userSpaceOnUse">
<stop stop-color="white"/>
<stop offset="1" stop-color="#00FDEE"/>
</linearGradient>
</defs>
</svg>
